<svg width="1120" height="500" viewBox="0 0 1120 500" fill="none" xmlns="http://www.w3.org/2000/svg">
<g clip-path="url(#clip0_431_8351)">
<path fill-rule="evenodd" clip-rule="evenodd" d="M36.8798 349.251C28.8971 341.976 13.172 327.866 -17.7717 300.556C-23.2206 295.747 -26.973 294.689 -29.335 294.636C-31.7374 294.582 -33.5421 295.518 -35.4746 296.633C-36.3734 297.152 -38.0826 298.884 -39.0654 301.371C-39.983 303.694 -40.0823 306.179 -38.716 308.546L2.58796 380.086C2.58821 380.087 2.58834 380.087 -1.20628 382.278C-5.00089 384.468 -5.00101 384.468 -5.00126 384.468L-46.3052 312.927C-49.2876 307.762 -48.8531 302.408 -47.2012 298.227C-45.6145 294.211 -42.7183 290.775 -39.8224 289.103C-37.7539 287.908 -34.1024 285.813 -29.0796 285.925C-24.0164 286.039 -18.3747 288.345 -11.9469 294.018C19.0065 321.337 34.7728 335.482 42.8074 342.805C46.8214 346.463 48.926 348.437 50.0381 349.508C50.5911 350.041 50.9258 350.377 51.1384 350.6C51.2435 350.711 51.3456 350.821 51.4407 350.933C51.4889 350.99 51.5519 351.066 51.6207 351.157C51.656 351.204 51.6991 351.263 51.7462 351.332C51.7701 351.367 51.7966 351.407 51.8249 351.452L51.8695 351.524L51.8934 351.564C51.9059 351.585 51.9183 351.606 48.1237 353.797C51.9183 351.606 51.9306 351.628 51.9427 351.649L51.9652 351.69L52.0052 351.764C52.0296 351.811 52.051 351.854 52.0695 351.892C52.1058 351.968 52.1353 352.034 52.1581 352.088C52.2027 352.193 52.2373 352.286 52.2623 352.356C52.3115 352.494 52.3565 352.638 52.3995 352.785C52.4866 353.08 52.61 353.538 52.7949 354.283C53.1668 355.782 53.8238 358.592 54.985 363.897C57.3092 374.516 61.6765 395.243 69.8586 435.709C71.5577 444.112 70.734 450.151 68.3007 454.593C65.8868 458.999 62.2461 461.113 60.1776 462.308C57.2817 463.98 52.8573 464.769 48.5859 464.136C44.1391 463.476 39.2858 461.175 36.3034 456.01L-5.00126 384.468C-5.00101 384.468 -5.00089 384.468 -1.20628 382.278C2.58834 380.087 2.58821 380.087 2.58796 380.086L43.8927 451.628C45.2589 453.994 47.4611 455.151 49.9314 455.518C52.5769 455.91 54.931 455.296 55.8297 454.777C57.7622 453.661 59.475 452.566 60.6296 450.459C61.7647 448.387 62.7243 444.608 61.2839 437.484C53.1044 397.031 48.7479 376.358 46.4387 365.807C45.2832 360.528 44.6462 357.81 44.3031 356.427C44.269 356.289 44.238 356.166 44.2101 356.056C44.129 355.977 44.0378 355.889 43.9356 355.791C42.9098 354.802 40.8744 352.891 36.8798 349.251Z" fill="#FAF3EE"/>
<path fill-rule="evenodd" clip-rule="evenodd" d="M78.6083 328.821C76.4107 328.495 73.554 329.074 70.3381 330.931C68.2424 332.141 65.5702 331.436 64.3696 329.356C63.169 327.277 63.8946 324.61 65.9903 323.4C70.3637 320.875 75.2345 319.503 79.9541 320.203C84.8399 320.929 88.9873 323.797 91.7617 328.603C94.5362 333.408 94.9466 338.434 93.1318 343.028C91.3787 347.465 87.755 350.998 83.3816 353.523L70.1005 361.19C63.6561 364.911 57.1102 363.526 52.7363 361.677C50.5114 360.736 48.6649 359.607 47.3808 358.723C46.7335 358.277 46.2153 357.884 45.8485 357.593C45.6648 357.448 45.5181 357.327 45.4112 357.237L45.2806 357.126L45.2382 357.09L45.2228 357.076L45.2165 357.071C45.2152 357.07 45.2112 357.066 48.1237 353.797C51.0361 350.528 51.0349 350.527 51.0338 350.526L51.0283 350.521L51.0725 350.558C51.1213 350.599 51.2055 350.669 51.3224 350.762C51.5569 350.947 51.9187 351.223 52.3868 351.545C53.3335 352.197 54.659 353.002 56.199 353.653C59.355 354.987 62.7105 355.416 65.7526 353.66L79.0338 345.992C82.2496 344.135 84.1795 341.951 84.9958 339.885C85.7503 337.975 85.7459 335.709 84.1725 332.984C82.5991 330.259 80.6396 329.123 78.6083 328.821Z" fill="#FAF3EE"/>
<path d="M2.58796 380.086C2.58821 380.087 2.58833 380.087 -1.20628 382.278C-5.00089 384.468 -5.00101 384.468 -5.00126 384.468M2.58796 380.086L-38.716 308.546C-40.0823 306.179 -39.983 303.694 -39.0654 301.371C-38.0826 298.884 -36.3734 297.152 -35.4746 296.633C-33.5421 295.518 -31.7374 294.582 -29.335 294.636C-26.973 294.689 -23.2206 295.747 -17.7717 300.556C13.172 327.866 28.8971 341.976 36.8798 349.251C40.8744 352.891 42.9098 354.802 43.9356 355.791C44.0378 355.889 44.129 355.977 44.2101 356.056C44.238 356.166 44.269 356.289 44.3031 356.427C44.6462 357.81 45.2832 360.528 46.4387 365.807C48.7479 376.358 53.1044 397.031 61.2839 437.484C62.7243 444.608 61.7647 448.387 60.6296 450.459C59.475 452.566 57.7622 453.661 55.8297 454.777C54.931 455.296 52.5769 455.91 49.9314 455.518C47.4611 455.151 45.2589 453.994 43.8927 451.628L2.58796 380.086ZM-5.00126 384.468L-46.3052 312.927C-49.2876 307.762 -48.8531 302.408 -47.2012 298.227C-45.6145 294.211 -42.7183 290.775 -39.8224 289.103C-37.7539 287.908 -34.1024 285.813 -29.0796 285.925C-24.0164 286.039 -18.3747 288.345 -11.9469 294.018C19.0065 321.337 34.7728 335.482 42.8074 342.805C46.8214 346.463 48.926 348.437 50.0381 349.508C50.5911 350.041 50.9258 350.377 51.1384 350.6C51.2435 350.711 51.3456 350.821 51.4407 350.933C51.4888 350.99 51.5519 351.066 51.6208 351.157C51.656 351.204 51.6991 351.263 51.7462 351.332C51.7701 351.367 51.7966 351.407 51.8249 351.452L51.8695 351.524L51.8934 351.564C51.9059 351.585 51.9183 351.606 48.1237 353.797M-5.00126 384.468L36.3034 456.01C39.2858 461.175 44.1391 463.476 48.5859 464.136C52.8573 464.769 57.2817 463.98 60.1776 462.308C62.246 461.113 65.8868 458.999 68.3007 454.593C70.734 450.151 71.5577 444.112 69.8586 435.709C61.6765 395.243 57.3092 374.516 54.985 363.897C53.8238 358.592 53.1668 355.782 52.7949 354.283C52.61 353.538 52.4866 353.08 52.3995 352.785C52.3565 352.638 52.3115 352.494 52.2623 352.356C52.2373 352.286 52.2027 352.193 52.1581 352.088C52.1353 352.034 52.1058 351.968 52.0695 351.892C52.051 351.854 52.0296 351.811 52.0052 351.764L51.9652 351.69L51.9427 351.649C51.9306 351.628 51.9183 351.606 48.1237 353.797M48.1237 353.797C45.2113 357.066 45.2152 357.07 45.2165 357.071L45.2228 357.076L45.2382 357.09L45.2806 357.126L45.4112 357.237C45.5181 357.327 45.6648 357.448 45.8485 357.593C46.2153 357.884 46.7335 358.277 47.3808 358.723C48.6649 359.607 50.5114 360.736 52.7363 361.677C57.1102 363.526 63.6561 364.911 70.1005 361.19L83.3816 353.523C87.755 350.998 91.3787 347.465 93.1318 343.028C94.9466 338.434 94.5362 333.408 91.7617 328.603C88.9873 323.797 84.8399 320.929 79.9541 320.203C75.2345 319.503 70.3637 320.875 65.9903 323.4C63.8946 324.61 63.169 327.277 64.3696 329.356C65.5702 331.436 68.2424 332.141 70.3381 330.931C73.554 329.074 76.4107 328.495 78.6083 328.821C80.6396 329.123 82.5991 330.259 84.1725 332.984C85.7459 335.709 85.7503 337.975 84.9958 339.885C84.1795 341.951 82.2496 344.135 79.0338 345.992L65.7526 353.66C62.7105 355.416 59.355 354.987 56.199 353.653C54.659 353.002 53.3335 352.197 52.3868 351.545C51.9187 351.223 51.5569 350.947 51.3224 350.762C51.2055 350.669 51.1213 350.599 51.0725 350.558L51.0284 350.521L51.0338 350.526C51.0349 350.527 51.0361 350.528 48.1237 353.797Z" stroke="#FAF3EE" stroke-width="2"/>
<path d="M1011.06 49.6044C1022.35 59.6184 1019.44 70.4856 1021.03 73.2406C1024.8 76.5787 1029.09 78.2625 1033.31 79.5996C1037.63 80.5505 1042.19 81.2381 1047.12 80.2294C1049.87 78.6391 1052.78 67.7718 1067.57 64.7459C1092.22 59.7027 1135.84 62.0739 1144.26 48.0253C1144.26 48.0253 1148.18 42.0869 1146.01 41.5051C1139.49 39.7586 1135.14 38.5934 1130.21 39.602C1128.25 40.543 1126.14 41.5431 1123.89 42.568C1104.75 51.3062 1075.59 61.8438 1040.48 52.8279C1005.56 43.0803 985.586 19.3774 973.372 2.23594C971.94 0.225373 970.614 -1.69492 969.384 -3.49184C965.619 -6.82984 961.271 -7.9951 954.753 -9.74154C952.581 -10.3234 953.006 -3.22132 953.006 -3.22132C953.276 13.1566 992.24 32.9144 1011.06 49.6044Z" fill="#FAF3EE"/>
<path d="M1021.03 73.2406L1020.7 73.6147L1020.64 73.5609L1020.6 73.4907L1021.03 73.2406ZM1011.06 49.6044L1010.73 49.9785L1011.06 49.6044ZM953.006 -3.22132L953.505 -3.25114L953.505 -3.24036L953.506 -3.22957L953.006 -3.22132ZM1033.31 79.5996L1033.2 80.0879L1033.18 80.0831L1033.15 80.0763L1033.31 79.5996ZM969.384 -3.49184L969.715 -3.86594L969.761 -3.82511L969.796 -3.77434L969.384 -3.49184ZM973.372 2.23594L973.78 1.9458L973.372 2.23594ZM1040.48 52.8279L1040.35 53.3123L1040.34 53.3095L1040.48 52.8279ZM1047.12 80.2294L1047.37 80.6625L1047.3 80.703L1047.22 80.7193L1047.12 80.2294ZM1067.57 64.7459L1067.67 65.2358L1067.57 64.7459ZM1144.26 48.0253L1143.83 47.7682L1143.84 47.7589L1143.84 47.7499L1144.26 48.0253ZM1130.21 39.602L1130 39.1511L1130.05 39.1245L1130.11 39.1122L1130.21 39.602ZM1123.89 42.568L1124.1 43.0229L1123.89 42.568ZM1015.16 101.947C1015.23 101.68 1015.5 101.522 1015.77 101.594C1016.04 101.665 1016.19 101.939 1016.12 102.206L1015.16 101.947ZM1020.6 73.4907C1020.36 73.0661 1020.22 72.5222 1020.12 71.9253C1020.02 71.3219 1019.96 70.6124 1019.89 69.834C1019.77 68.2658 1019.63 66.3667 1019.2 64.2448C1018.33 60.0189 1016.28 54.9018 1010.73 49.9785L1011.39 49.2303C1017.13 54.3209 1019.27 59.6444 1020.18 64.0444C1020.62 66.2355 1020.76 68.1956 1020.89 69.7528C1020.95 70.5371 1021.01 71.2069 1021.1 71.7642C1021.2 72.328 1021.31 72.7264 1021.47 72.9906L1020.6 73.4907ZM1010.73 49.9785C1006.05 45.8261 1000.1 41.4758 993.799 37.0207C987.504 32.5717 980.848 28.0167 974.777 23.4749C968.707 18.9334 963.191 14.3833 959.173 9.93006C955.167 5.49047 952.576 1.06886 952.506 -3.21306L953.506 -3.22957C953.57 0.677473 955.951 4.8673 959.915 9.26014C963.867 13.6393 969.319 18.1426 975.376 22.6741C981.433 27.2052 988.064 31.7427 994.376 36.2041C1000.68 40.6594 1006.66 45.0376 1011.39 49.2303L1010.73 49.9785ZM1033.15 80.0763C1028.92 78.7332 1024.55 77.0238 1020.7 73.6147L1021.37 72.8665C1025.05 76.1335 1029.26 77.7919 1033.46 79.123L1033.15 80.0763ZM953.006 -3.22132C952.507 -3.19149 952.507 -3.1916 952.506 -3.19173C952.506 -3.1918 952.506 -3.19196 952.506 -3.19211C952.506 -3.19242 952.506 -3.19285 952.506 -3.19338C952.506 -3.19444 952.506 -3.19592 952.506 -3.19783C952.506 -3.20164 952.506 -3.20714 952.505 -3.21427C952.504 -3.22852 952.503 -3.24929 952.502 -3.27612C952.499 -3.32977 952.496 -3.40771 952.492 -3.50629C952.484 -3.70339 952.476 -3.98348 952.473 -4.31747C952.467 -4.98357 952.482 -5.87236 952.567 -6.74794C952.651 -7.61071 952.807 -8.5126 953.109 -9.1752C953.259 -9.5068 953.467 -9.82626 953.766 -10.0369C954.087 -10.2634 954.471 -10.3346 954.882 -10.2245L954.623 -9.25858C954.491 -9.29393 954.414 -9.27052 954.343 -9.21995C954.249 -9.15356 954.134 -9.01362 954.019 -8.76123C953.789 -8.25583 953.644 -7.49131 953.563 -6.65129C953.482 -5.82408 953.467 -4.97373 953.473 -4.32638C953.476 -4.00364 953.484 -3.73342 953.491 -3.5444C953.495 -3.44993 953.498 -3.37585 953.501 -3.32575C953.502 -3.3007 953.503 -3.28166 953.504 -3.26908C953.504 -3.26279 953.504 -3.2581 953.505 -3.25509C953.505 -3.25359 953.505 -3.2525 953.505 -3.25184C953.505 -3.25151 953.505 -3.25128 953.505 -3.25117C953.505 -3.25111 953.505 -3.25111 953.505 -3.25107C953.505 -3.25109 953.505 -3.25114 953.006 -3.22132ZM954.882 -10.2245C961.374 -8.48491 965.847 -7.29626 969.715 -3.86594L969.052 -3.11774C965.392 -6.36342 961.167 -7.50529 954.623 -9.25858L954.882 -10.2245ZM969.796 -3.77434C971.026 -1.97845 972.35 -0.0610718 973.78 1.9458L972.965 2.52608C971.53 0.511818 970.202 -1.4114 968.971 -3.20934L969.796 -3.77434ZM973.78 1.9458C985.97 19.0556 1005.86 42.645 1040.61 52.3463L1040.34 53.3095C1005.26 43.5157 985.201 19.6991 972.965 2.52608L973.78 1.9458ZM1046.87 79.7964C1047.13 79.6439 1047.43 79.3574 1047.79 78.9152C1048.15 78.478 1048.54 77.9277 1048.98 77.2804C1049.87 75.9952 1050.97 74.3676 1052.46 72.6943C1055.44 69.334 1059.95 65.7943 1067.47 64.2561L1067.67 65.2358C1060.4 66.7234 1056.07 70.1303 1053.21 73.3577C1051.77 74.9782 1050.7 76.5548 1049.81 77.849C1049.36 78.4915 1048.95 79.0748 1048.57 79.5481C1048.18 80.0164 1047.79 80.4174 1047.37 80.6625L1046.87 79.7964ZM1067.47 64.2561C1073.66 62.9892 1081.03 62.1898 1088.72 61.4834C1096.42 60.776 1104.43 60.1619 1111.94 59.2661C1119.45 58.3703 1126.42 57.1965 1132.04 55.3798C1137.67 53.5574 1141.82 51.1196 1143.83 47.7682L1144.69 48.2824C1142.49 51.9553 1138.03 54.4894 1132.34 56.3311C1126.64 58.1786 1119.59 59.3613 1112.06 60.2591C1104.53 61.157 1096.49 61.7738 1088.81 62.4792C1081.12 63.1856 1073.8 63.9811 1067.67 65.2358L1067.47 64.2561ZM1033.41 79.1113C1037.72 80.058 1042.19 80.7268 1047.02 79.7396L1047.22 80.7193C1042.18 81.7494 1037.54 81.043 1033.2 80.0879L1033.41 79.1113ZM1144.26 48.0253C1143.84 47.7499 1143.84 47.75 1143.84 47.75C1143.84 47.75 1143.84 47.75 1143.84 47.7499C1143.84 47.7498 1143.84 47.7496 1143.84 47.7493C1143.84 47.7488 1143.84 47.7479 1143.85 47.7466C1143.85 47.7441 1143.85 47.7402 1143.85 47.7349C1143.86 47.7243 1143.87 47.7084 1143.88 47.6873C1143.91 47.6452 1143.95 47.5827 1144 47.5027C1144.1 47.3426 1144.24 47.1126 1144.41 46.8345C1144.74 46.2768 1145.15 45.533 1145.49 44.7764C1145.84 44.0081 1146.1 43.2736 1146.15 42.721C1146.18 42.4451 1146.15 42.2664 1146.1 42.1619C1146.07 42.0823 1146.01 42.0234 1145.88 41.988L1146.14 41.0221C1146.55 41.1322 1146.85 41.3862 1147.01 41.7427C1147.16 42.0743 1147.18 42.4551 1147.15 42.8177C1147.08 43.5421 1146.76 44.4013 1146.4 45.1904C1146.04 45.9911 1145.61 46.7683 1145.27 47.3422C1145.1 47.6299 1144.95 47.8684 1144.85 48.0353C1144.8 48.1188 1144.75 48.1845 1144.72 48.2297C1144.71 48.2522 1144.7 48.2697 1144.69 48.2816C1144.69 48.2876 1144.68 48.2922 1144.68 48.2954C1144.68 48.297 1144.68 48.2982 1144.68 48.2991C1144.68 48.2996 1144.68 48.2999 1144.68 48.3002C1144.68 48.3003 1144.68 48.3004 1144.68 48.3005C1144.68 48.3006 1144.68 48.3007 1144.26 48.0253ZM1145.88 41.988C1139.33 40.2348 1135.11 39.1111 1130.31 40.0919L1130.11 39.1122C1135.18 38.0756 1139.64 39.2825 1146.14 41.0221L1145.88 41.988ZM1130.43 40.053C1128.46 40.9944 1126.35 41.9961 1124.1 43.0229L1123.69 42.1132C1125.93 41.0901 1128.03 40.0915 1130 39.1511L1130.43 40.053ZM1124.1 43.0229C1104.92 51.7772 1075.63 62.3708 1040.35 53.3122L1040.6 52.3436C1075.55 61.3167 1104.57 50.8352 1123.69 42.1132L1124.1 43.0229ZM972.698 1.53725L1124.83 42.301L1124.57 43.267L972.439 2.50318L972.698 1.53725ZM1033.98 79.0379L1030.48 92.0778L1029.52 91.819L1033.01 78.7791L1033.98 79.0379ZM1030.48 92.0778C1030.3 92.7686 1030.62 93.5186 1031.43 94.4996C1031.83 94.9776 1032.32 95.477 1032.85 96.0183C1033.39 96.5548 1033.97 97.1316 1034.54 97.7459C1036.84 100.207 1039.09 103.423 1037.86 108.029L1036.89 107.771C1037.98 103.683 1036.04 100.821 1033.81 98.4277C1033.25 97.8286 1032.69 97.2686 1032.15 96.7231C1031.61 96.1823 1031.09 95.6545 1030.67 95.1384C1029.83 94.1313 1029.19 93.0255 1029.52 91.819L1030.48 92.0778ZM1037.86 108.029C1036.18 114.282 1030.27 118.16 1023.46 116.338L1023.72 115.372C1029.96 117.043 1035.35 113.521 1036.89 107.771L1037.86 108.029ZM1023.46 116.338C1020.04 115.421 1017.5 113.534 1016.04 110.993C1014.59 108.453 1014.25 105.314 1015.16 101.947L1016.12 102.206C1015.28 105.36 1015.61 108.221 1016.91 110.496C1018.21 112.771 1020.52 114.513 1023.72 115.372L1023.46 116.338Z" fill="#FAF3EE"/>
<path fill-rule="evenodd" clip-rule="evenodd" d="M627.807 523.44C638.358 525.749 659.031 530.105 699.484 538.285C706.608 539.725 710.387 538.766 712.459 537.631C714.566 536.476 715.661 534.763 716.777 532.831C717.296 531.932 717.91 529.578 717.518 526.932C717.151 524.462 715.995 522.26 713.628 520.894L642.087 479.59C642.087 479.589 642.087 479.589 644.278 475.795C646.468 472 646.469 472 646.469 472L718.01 513.304C723.175 516.287 725.476 521.14 726.136 525.587C726.769 529.858 725.98 534.283 724.308 537.179C723.113 539.247 720.999 542.888 716.593 545.302C712.151 547.735 706.112 548.559 697.709 546.86C657.243 538.677 636.516 534.31 625.897 531.986C620.592 530.825 617.782 530.168 616.283 529.796C615.538 529.611 615.08 529.488 614.784 529.401C614.638 529.357 614.494 529.312 614.356 529.263C614.286 529.238 614.193 529.204 614.088 529.159C614.034 529.136 613.968 529.107 613.892 529.07C613.854 529.052 613.811 529.031 613.764 529.006L613.69 528.966L613.649 528.944C613.628 528.932 613.606 528.919 615.797 525.125C613.606 528.919 613.585 528.907 613.564 528.894L613.524 528.87L613.452 528.826C613.407 528.798 613.367 528.771 613.332 528.747C613.263 528.7 613.204 528.657 613.157 528.622C613.066 528.553 612.99 528.49 612.933 528.442C612.821 528.347 612.71 528.244 612.6 528.139C612.377 527.927 612.041 527.592 611.508 527.039C610.437 525.927 608.463 523.822 604.805 519.808C597.482 511.774 583.337 496.007 556.018 465.054C550.345 458.626 548.039 452.985 547.925 447.921C547.813 442.899 549.908 439.247 551.103 437.179C552.775 434.283 556.211 431.386 560.227 429.8C564.408 428.148 569.762 427.713 574.927 430.696L646.469 472C646.469 472 646.468 472 644.278 475.795C642.087 479.589 642.087 479.589 642.087 479.59L570.546 438.285C568.179 436.919 565.694 437.018 563.371 437.936C560.884 438.918 559.152 440.628 558.633 441.526C557.518 443.459 556.582 445.264 556.636 447.666C556.689 450.028 557.747 453.78 562.556 459.229C589.866 490.173 603.976 505.898 611.251 513.881C614.891 517.875 616.802 519.911 617.791 520.937C617.889 521.039 617.977 521.13 618.056 521.211C618.166 521.239 618.289 521.27 618.427 521.304C619.81 521.647 622.528 522.284 627.807 523.44Z" fill="#FAF3EE"/>
<path fill-rule="evenodd" clip-rule="evenodd" d="M601.885 561.997C603.951 561.18 606.135 559.251 607.992 556.035C609.202 553.939 611.869 553.213 613.948 554.414C616.028 555.615 616.732 558.287 615.523 560.383C612.998 564.756 609.465 568.38 605.028 570.133C600.434 571.948 595.408 571.537 590.603 568.763C585.797 565.988 582.929 561.841 582.203 556.955C581.503 552.235 582.875 547.365 585.4 542.991L593.068 529.71C596.788 523.266 603.15 521.192 607.862 520.607C610.26 520.309 612.423 520.364 613.977 520.487C614.761 520.55 615.406 520.631 615.869 520.699C616.101 520.734 616.288 520.765 616.426 520.789L616.594 520.82L616.65 520.83L616.67 520.834L616.678 520.836C616.679 520.836 616.685 520.837 615.797 525.125C614.909 529.412 614.911 529.412 614.912 529.413L614.919 529.414L614.862 529.404C614.8 529.393 614.692 529.375 614.544 529.353C614.249 529.309 613.797 529.251 613.231 529.206C612.085 529.115 610.535 529.081 608.875 529.287C605.475 529.709 602.355 531.016 600.598 534.058L592.931 547.339C591.074 550.555 590.495 553.412 590.821 555.609C591.123 557.641 592.259 559.6 594.984 561.173C597.709 562.747 599.975 562.751 601.885 561.997Z" fill="#FAF3EE"/>
<path d="M642.087 479.59C642.087 479.589 642.087 479.589 644.278 475.795C646.468 472 646.469 472 646.469 472M642.087 479.59L713.628 520.894C715.995 522.26 717.151 524.462 717.518 526.932C717.91 529.578 717.296 531.932 716.777 532.831C715.661 534.763 714.566 536.476 712.459 537.631C710.387 538.766 706.608 539.725 699.484 538.285C659.031 530.105 638.358 525.749 627.807 523.44C622.528 522.284 619.81 521.647 618.427 521.304C618.289 521.27 618.166 521.239 618.056 521.211C617.977 521.13 617.889 521.039 617.791 520.937C616.802 519.911 614.891 517.875 611.251 513.881C603.976 505.898 589.866 490.173 562.556 459.229C557.747 453.78 556.689 450.028 556.636 447.666C556.582 445.264 557.518 443.459 558.633 441.526C559.152 440.628 560.884 438.918 563.371 437.936C565.694 437.018 568.179 436.919 570.546 438.285L642.087 479.59ZM646.469 472L718.01 513.304C723.175 516.287 725.476 521.14 726.136 525.587C726.769 529.858 725.98 534.283 724.308 537.179C723.113 539.247 720.999 542.888 716.593 545.302C712.151 547.735 706.112 548.559 697.709 546.86C657.243 538.677 636.516 534.31 625.897 531.986C620.592 530.825 617.782 530.168 616.283 529.796C615.538 529.611 615.08 529.488 614.784 529.401C614.638 529.357 614.494 529.312 614.356 529.263C614.286 529.238 614.193 529.204 614.088 529.159C614.034 529.136 613.968 529.107 613.892 529.07C613.854 529.052 613.811 529.031 613.764 529.006L613.69 528.966L613.649 528.944C613.628 528.932 613.606 528.919 615.797 525.125M646.469 472L574.927 430.696C569.762 427.713 564.408 428.148 560.227 429.8C556.211 431.386 552.775 434.283 551.103 437.179C549.908 439.247 547.813 442.899 547.925 447.921C548.039 452.985 550.345 458.626 556.018 465.054C583.337 496.007 597.482 511.774 604.805 519.808C608.463 523.822 610.437 525.927 611.508 527.039C612.041 527.592 612.377 527.927 612.6 528.139C612.71 528.244 612.821 528.347 612.933 528.442C612.99 528.49 613.066 528.553 613.157 528.622C613.204 528.657 613.263 528.7 613.332 528.747C613.367 528.771 613.407 528.798 613.452 528.826L613.524 528.87L613.564 528.894C613.585 528.907 613.606 528.919 615.797 525.125M615.797 525.125C616.685 520.837 616.679 520.836 616.678 520.836L616.67 520.834L616.65 520.83L616.594 520.82L616.426 520.789C616.288 520.765 616.101 520.734 615.869 520.699C615.406 520.631 614.761 520.55 613.977 520.487C612.423 520.364 610.26 520.309 607.862 520.607C603.15 521.192 596.788 523.266 593.068 529.71L585.4 542.991C582.875 547.365 581.503 552.235 582.203 556.955C582.929 561.841 585.797 565.988 590.603 568.763C595.408 571.537 600.434 571.948 605.028 570.133C609.465 568.38 612.998 564.756 615.523 560.383C616.733 558.287 616.028 555.615 613.948 554.414C611.869 553.213 609.202 553.939 607.992 556.035C606.135 559.251 603.951 561.18 601.885 561.997C599.975 562.751 597.709 562.747 594.984 561.173C592.259 559.6 591.123 557.641 590.821 555.609C590.495 553.412 591.074 550.555 592.931 547.339L600.598 534.058C602.355 531.016 605.475 529.709 608.875 529.287C610.535 529.081 612.085 529.115 613.231 529.206C613.797 529.251 614.249 529.309 614.544 529.353C614.692 529.375 614.8 529.393 614.862 529.404L614.919 529.414L614.912 529.413C614.911 529.412 614.909 529.412 615.797 525.125Z" stroke="#FAF3EE" stroke-width="2"/>
<path d="M840.31 393.985C825.243 394.889 819.618 385.146 816.545 384.323C811.523 384.624 807.298 386.467 803.371 388.504C799.643 390.887 795.932 393.626 793.16 397.824C792.336 400.897 797.961 410.641 789.645 423.236C775.784 444.229 743.262 473.398 747.24 489.288C747.24 489.288 748.668 496.258 750.615 495.134C756.459 491.76 760.358 489.509 763.13 485.31C763.853 483.256 764.637 481.058 765.5 478.745C772.861 459.027 786.026 430.959 817.229 412.507C848.81 394.711 879.697 397.345 900.454 400.829C902.889 401.238 905.184 401.659 907.325 402.059C912.347 401.758 916.246 399.507 922.09 396.133C924.036 395.009 918.714 390.287 918.714 390.287C906.942 378.897 865.42 392.478 840.31 393.985Z" fill="#FAF3EE"/>
<path d="M816.545 384.323L816.515 383.824L816.596 383.819L816.674 383.84L816.545 384.323ZM840.31 393.985L840.28 393.486L840.31 393.985ZM918.714 390.287L918.383 390.661L918.375 390.654L918.367 390.646L918.714 390.287ZM803.371 388.504L803.101 388.083L803.12 388.071L803.14 388.06L803.371 388.504ZM907.325 402.059L907.355 402.558L907.293 402.562L907.233 402.551L907.325 402.059ZM900.454 400.829L900.371 401.323L900.454 400.829ZM817.229 412.507L816.974 412.077L816.983 412.072L817.229 412.507ZM793.16 397.824L792.677 397.695L792.698 397.616L792.743 397.549L793.16 397.824ZM789.645 423.236L789.228 422.961L789.645 423.236ZM747.24 489.288L747.725 489.166L747.728 489.177L747.73 489.187L747.24 489.288ZM763.13 485.31L763.601 485.476L763.581 485.534L763.547 485.586L763.13 485.31ZM765.5 478.745L765.032 478.57L765.5 478.745ZM800.402 359.868C800.54 360.108 800.458 360.413 800.219 360.551C799.98 360.69 799.674 360.608 799.536 360.368L800.402 359.868ZM816.674 383.84C817.148 383.967 817.631 384.252 818.122 384.606C818.619 384.963 819.164 385.42 819.76 385.926C820.959 386.944 822.398 388.191 824.205 389.384C827.805 391.761 832.872 393.93 840.28 393.486L840.34 394.484C832.681 394.944 827.402 392.694 823.654 390.219C821.788 388.987 820.303 387.7 819.112 386.688C818.512 386.179 817.997 385.747 817.538 385.417C817.075 385.084 816.71 384.885 816.415 384.806L816.674 383.84ZM840.28 393.486C846.527 393.111 853.806 391.984 861.414 390.677C869.011 389.371 876.938 387.886 884.443 386.805C891.946 385.723 899.064 385.041 905.054 385.348C911.026 385.655 915.984 386.95 919.062 389.927L918.367 390.646C915.558 387.929 910.912 386.65 905.003 386.347C899.112 386.045 892.072 386.716 884.585 387.794C877.099 388.873 869.201 390.353 861.583 391.662C853.975 392.97 846.647 394.105 840.34 394.484L840.28 393.486ZM803.14 388.06C807.086 386.014 811.386 384.132 816.515 383.824L816.575 384.822C811.66 385.117 807.511 386.92 803.601 388.948L803.14 388.06ZM918.714 390.287C919.046 389.913 919.046 389.913 919.046 389.913C919.046 389.913 919.047 389.913 919.047 389.913C919.047 389.913 919.047 389.914 919.048 389.914C919.048 389.915 919.05 389.916 919.051 389.917C919.054 389.92 919.058 389.923 919.063 389.928C919.074 389.938 919.089 389.951 919.109 389.969C919.149 390.006 919.207 390.058 919.279 390.125C919.424 390.259 919.628 390.451 919.866 390.685C920.341 391.152 920.959 391.791 921.518 392.471C922.069 393.14 922.596 393.888 922.852 394.57C922.98 394.911 923.058 395.284 922.996 395.644C922.93 396.031 922.708 396.353 922.34 396.566L921.84 395.7C921.958 395.631 921.996 395.56 922.011 395.474C922.03 395.36 922.013 395.18 921.915 394.921C921.72 394.401 921.282 393.758 920.746 393.106C920.218 392.464 919.627 391.853 919.165 391.399C918.935 391.173 918.738 390.987 918.599 390.859C918.53 390.794 918.475 390.744 918.438 390.711C918.42 390.694 918.405 390.681 918.396 390.673C918.391 390.669 918.388 390.665 918.386 390.663C918.384 390.662 918.384 390.662 918.383 390.661C918.383 390.661 918.383 390.661 918.383 390.661C918.383 390.661 918.383 390.661 918.383 390.661C918.383 390.661 918.383 390.661 918.714 390.287ZM922.34 396.566C916.519 399.926 912.516 402.248 907.355 402.558L907.295 401.56C912.178 401.267 915.973 399.087 921.84 395.7L922.34 396.566ZM907.233 402.551C905.093 402.15 902.801 401.731 900.371 401.323L900.537 400.336C902.976 400.746 905.275 401.167 907.417 401.568L907.233 402.551ZM900.371 401.323C879.653 397.844 848.905 395.231 817.474 412.943L816.983 412.072C848.714 394.191 879.742 396.845 900.537 400.336L900.371 401.323ZM793.643 397.954C793.564 398.248 793.554 398.664 793.611 399.232C793.667 399.794 793.783 400.456 793.924 401.23C794.205 402.767 794.577 404.697 794.711 406.929C794.98 411.412 794.29 417.109 790.062 423.512L789.228 422.961C793.316 416.768 793.971 411.295 793.713 406.989C793.583 404.827 793.223 402.958 792.941 401.41C792.8 400.642 792.677 399.94 792.616 399.332C792.555 398.73 792.55 398.168 792.677 397.695L793.643 397.954ZM790.062 423.512C786.58 428.785 781.933 434.563 776.997 440.498C772.054 446.441 766.823 452.54 762.146 458.485C757.468 464.429 753.367 470.191 750.684 475.443C747.992 480.712 746.776 485.376 747.725 489.166L746.755 489.409C745.715 485.255 747.073 480.313 749.793 474.988C752.522 469.647 756.672 463.824 761.36 457.866C766.049 451.908 771.299 445.786 776.228 439.859C781.164 433.924 785.779 428.184 789.228 422.961L790.062 423.512ZM803.64 388.926C799.928 391.298 796.29 393.991 793.577 398.1L792.743 397.549C795.574 393.261 799.357 390.477 803.101 388.083L803.64 388.926ZM747.24 489.288C747.73 489.187 747.73 489.187 747.73 489.187C747.73 489.187 747.73 489.187 747.73 489.187C747.73 489.187 747.73 489.188 747.73 489.188C747.73 489.189 747.73 489.19 747.73 489.191C747.731 489.194 747.732 489.199 747.733 489.205C747.736 489.217 747.74 489.236 747.745 489.26C747.756 489.309 747.772 489.382 747.793 489.474C747.835 489.659 747.897 489.922 747.978 490.234C748.14 490.861 748.374 491.678 748.666 492.457C748.962 493.247 749.3 493.948 749.652 494.377C749.829 494.591 749.976 494.696 750.084 494.736C750.166 494.766 750.247 494.769 750.365 494.701L750.865 495.567C750.497 495.779 750.107 495.81 749.738 495.674C749.395 495.548 749.112 495.293 748.88 495.012C748.418 494.45 748.033 493.619 747.729 492.808C747.42 491.984 747.176 491.129 747.009 490.484C746.926 490.161 746.861 489.888 746.818 489.696C746.796 489.6 746.779 489.524 746.768 489.471C746.762 489.445 746.758 489.424 746.755 489.41C746.753 489.403 746.752 489.398 746.751 489.394C746.751 489.392 746.751 489.391 746.75 489.39C746.75 489.389 746.75 489.389 746.75 489.389C746.75 489.389 746.75 489.388 746.75 489.388C746.75 489.388 746.75 489.388 747.24 489.288ZM750.365 494.701C756.232 491.313 760.017 489.117 762.713 485.035L763.547 485.586C760.698 489.9 756.686 492.206 750.865 495.567L750.365 494.701ZM762.658 485.144C763.382 483.089 764.167 480.887 765.032 478.57L765.969 478.92C765.107 481.229 764.324 483.423 763.601 485.476L762.658 485.144ZM765.032 478.57C772.406 458.815 785.624 430.616 816.974 412.077L817.483 412.938C786.429 431.302 773.316 459.238 765.969 478.92L765.032 478.57ZM901.425 400.846L765.027 479.596L764.527 478.73L900.925 399.98L901.425 400.846ZM803.293 389.376L796.543 377.685L797.409 377.185L804.159 388.876L803.293 389.376ZM796.543 377.685C796.186 377.065 795.427 376.763 794.157 376.646C793.539 376.588 792.843 376.578 792.08 376.576C791.323 376.573 790.503 376.578 789.663 376.549C786.302 376.43 782.435 375.749 780.051 371.618L780.917 371.118C783.032 374.783 786.43 375.434 789.699 375.549C790.517 375.578 791.314 375.573 792.083 375.576C792.845 375.578 793.582 375.588 794.25 375.65C795.553 375.771 796.785 376.103 797.409 377.185L796.543 377.685ZM780.051 371.618C776.814 366.012 778.253 359.089 784.351 355.568L784.851 356.434C779.258 359.663 777.94 365.963 780.917 371.118L780.051 371.618ZM784.351 355.568C787.42 353.796 790.554 353.33 793.379 354.098C796.204 354.866 798.66 356.85 800.402 359.868L799.536 360.368C797.904 357.541 795.647 355.751 793.117 355.063C790.588 354.376 787.726 354.774 784.851 356.434L784.351 355.568Z" fill="#FAF3EE"/>
<path fill-rule="evenodd" clip-rule="evenodd" d="M1007.24 413.333C1013.07 404.24 1024.6 386.541 1047.42 352.152C1051.44 346.097 1054.79 344.103 1057.06 343.441C1059.37 342.767 1061.35 343.204 1063.51 343.781C1064.51 344.05 1066.61 345.28 1068.2 347.428C1069.69 349.434 1070.43 351.81 1069.72 354.449L1048.34 434.242C1048.34 434.243 1048.34 434.243 1052.57 435.377C1056.81 436.511 1056.81 436.511 1056.81 436.51L1078.19 356.717C1079.73 350.956 1077.93 345.897 1075.25 342.286C1072.68 338.818 1068.99 336.248 1065.76 335.382C1063.45 334.764 1059.38 333.685 1054.56 335.093C1049.7 336.514 1044.85 340.201 1040.11 347.345C1017.28 381.744 1005.71 399.488 999.844 408.641C996.913 413.213 995.391 415.664 994.595 416.987C994.198 417.645 993.962 418.056 993.814 418.327C993.741 418.46 993.671 418.594 993.609 418.727C993.577 418.794 993.535 418.884 993.493 418.99C993.471 419.044 993.444 419.112 993.417 419.191C993.403 419.231 993.387 419.277 993.372 419.327L993.347 419.408L993.334 419.453C993.328 419.476 993.321 419.5 997.554 420.634C993.321 419.5 993.315 419.524 993.309 419.548L993.298 419.593L993.278 419.675C993.267 419.727 993.257 419.774 993.249 419.816C993.234 419.898 993.223 419.97 993.214 420.028C993.199 420.141 993.189 420.24 993.183 420.314C993.171 420.46 993.165 420.611 993.161 420.763C993.154 421.071 993.153 421.545 993.168 422.313C993.196 423.857 993.289 426.741 993.54 432.166C994.044 443.025 995.19 464.176 997.76 505.381C998.293 513.937 1000.65 519.557 1004.15 523.218C1007.62 526.849 1011.69 527.949 1014 528.567C1017.23 529.433 1021.7 529.05 1025.66 527.333C1029.79 525.544 1033.88 522.066 1035.43 516.305L1056.81 436.51C1056.81 436.511 1056.81 436.511 1052.57 435.377C1048.34 434.243 1048.34 434.243 1048.34 434.242L1026.96 514.037C1026.25 516.676 1024.43 518.363 1022.13 519.357C1019.68 520.421 1017.25 520.437 1016.25 520.168C1014.09 519.59 1012.15 518.976 1010.49 517.239C1008.86 515.532 1006.95 512.13 1006.5 504.876C1003.93 463.684 1002.79 442.588 1002.29 431.799C1002.04 426.401 1001.95 423.61 1001.92 422.186C1001.92 422.044 1001.92 421.917 1001.92 421.804C1001.98 421.706 1002.04 421.598 1002.12 421.476C1002.85 420.256 1004.32 417.883 1007.24 413.333Z" fill="#FAF3EE"/>
<path fill-rule="evenodd" clip-rule="evenodd" d="M961.644 404.399C963.682 403.515 966.591 403.335 970.178 404.296C972.515 404.923 974.914 403.55 975.536 401.231C976.157 398.911 974.766 396.523 972.428 395.897C967.551 394.59 962.491 394.525 958.113 396.424C953.582 398.389 950.318 402.233 948.882 407.593C947.446 412.952 948.35 417.913 951.292 421.881C954.134 425.714 958.548 428.188 963.426 429.495L978.239 433.464C985.427 435.39 991.391 432.357 995.138 429.439C997.043 427.955 998.535 426.386 999.546 425.2C1000.06 424.602 1000.45 424.088 1000.73 423.712C1000.87 423.524 1000.98 423.37 1001.06 423.255L1001.16 423.114L1001.19 423.068L1001.2 423.051L1001.21 423.044C1001.21 423.043 1001.21 423.038 997.554 420.634C993.894 418.23 993.895 418.229 993.896 418.228L993.9 418.222L993.867 418.269C993.831 418.321 993.767 418.41 993.678 418.53C993.5 418.77 993.222 419.13 992.853 419.563C992.107 420.437 991.035 421.558 989.716 422.585C987.013 424.691 983.883 425.974 980.49 425.064L965.677 421.095C962.09 420.134 959.66 418.524 958.337 416.739C957.114 415.089 956.532 412.9 957.346 409.861C958.161 406.821 959.759 405.216 961.644 404.399Z" fill="#FAF3EE"/>
<path d="M1048.34 434.242C1048.34 434.243 1048.34 434.243 1052.57 435.377C1056.81 436.511 1056.81 436.511 1056.81 436.51M1048.34 434.242L1069.72 354.449C1070.43 351.81 1069.69 349.434 1068.2 347.428C1066.61 345.28 1064.51 344.05 1063.51 343.781C1061.35 343.204 1059.37 342.767 1057.06 343.441C1054.79 344.103 1051.44 346.097 1047.42 352.152C1024.6 386.541 1013.07 404.24 1007.24 413.333C1004.32 417.883 1002.85 420.256 1002.12 421.476C1002.04 421.598 1001.98 421.706 1001.92 421.804C1001.92 421.917 1001.92 422.044 1001.92 422.186C1001.95 423.61 1002.04 426.401 1002.29 431.799C1002.79 442.588 1003.93 463.684 1006.5 504.876C1006.95 512.13 1008.86 515.532 1010.49 517.239C1012.15 518.976 1014.09 519.59 1016.25 520.168C1017.25 520.437 1019.68 520.421 1022.13 519.357C1024.43 518.363 1026.25 516.676 1026.96 514.037L1048.34 434.242ZM1056.81 436.51L1078.19 356.717C1079.73 350.956 1077.93 345.897 1075.25 342.286C1072.68 338.818 1068.99 336.248 1065.76 335.382C1063.45 334.764 1059.38 333.685 1054.56 335.093C1049.7 336.514 1044.85 340.201 1040.11 347.345C1017.28 381.744 1005.71 399.488 999.844 408.641C996.913 413.213 995.391 415.664 994.595 416.987C994.198 417.645 993.962 418.056 993.814 418.327C993.741 418.46 993.671 418.594 993.609 418.727C993.577 418.794 993.535 418.884 993.493 418.99C993.471 419.044 993.444 419.112 993.417 419.191C993.403 419.231 993.387 419.277 993.372 419.327L993.347 419.408L993.334 419.453C993.328 419.476 993.321 419.5 997.554 420.634M1056.81 436.51L1035.43 516.305C1033.88 522.066 1029.79 525.544 1025.66 527.333C1021.7 529.05 1017.23 529.433 1014 528.567C1011.69 527.949 1007.62 526.849 1004.15 523.218C1000.65 519.557 998.293 513.937 997.76 505.381C995.19 464.176 994.044 443.025 993.54 432.166C993.289 426.741 993.196 423.857 993.168 422.313C993.153 421.545 993.154 421.071 993.161 420.763C993.165 420.611 993.171 420.46 993.183 420.314C993.189 420.24 993.199 420.141 993.214 420.028C993.223 419.97 993.234 419.898 993.249 419.816C993.257 419.774 993.267 419.727 993.278 419.675L993.298 419.593L993.309 419.548C993.315 419.524 993.321 419.5 997.554 420.634M997.554 420.634C1001.21 423.038 1001.21 423.043 1001.21 423.044L1001.2 423.051L1001.19 423.068L1001.16 423.114L1001.06 423.255C1000.98 423.37 1000.87 423.524 1000.73 423.712C1000.45 424.088 1000.06 424.602 999.546 425.2C998.535 426.386 997.043 427.955 995.138 429.439C991.391 432.357 985.427 435.39 978.239 433.464L963.426 429.495C958.548 428.188 954.134 425.714 951.292 421.881C948.35 417.913 947.446 412.952 948.882 407.593C950.318 402.233 953.582 398.389 958.113 396.424C962.491 394.525 967.551 394.59 972.428 395.897C974.766 396.523 976.157 398.911 975.536 401.231C974.914 403.55 972.515 404.923 970.178 404.296C966.591 403.335 963.682 403.515 961.644 404.399C959.759 405.216 958.161 406.821 957.346 409.861C956.532 412.9 957.114 415.089 958.337 416.739C959.66 418.524 962.09 420.134 965.677 421.095L980.49 425.064C983.883 425.974 987.013 424.691 989.716 422.585C991.035 421.558 992.107 420.437 992.853 419.563C993.222 419.13 993.5 418.77 993.678 418.53C993.767 418.41 993.831 418.321 993.867 418.269L993.9 418.222L993.896 418.228C993.895 418.229 993.894 418.23 997.554 420.634Z" stroke="#FAF3EE" stroke-width="2"/>
<path fill-rule="evenodd" clip-rule="evenodd" d="M747.333 22.2378C738.24 28.0655 720.541 39.6031 686.152 62.424C680.097 66.4425 678.103 69.7931 677.441 72.0609C676.767 74.3675 677.204 76.353 677.781 78.5084C678.05 79.5108 679.28 81.6099 681.428 83.203C683.434 84.6905 685.81 85.4297 688.449 84.7225L768.242 63.3419C768.243 63.3418 768.243 63.3418 769.377 67.5741C770.511 71.8064 770.511 71.8065 770.51 71.8066L690.717 93.1871C684.956 94.7309 679.897 92.9257 676.286 90.248C672.818 87.6759 670.248 83.9889 669.382 80.759C668.764 78.4519 667.685 74.3823 669.093 69.5598C670.514 64.6985 674.201 59.8459 681.345 55.1054C715.744 32.2774 733.488 20.7094 742.641 14.8439C747.213 11.9134 749.664 10.3914 750.987 9.59451C751.645 9.19827 752.056 8.96183 752.327 8.81426C752.46 8.74134 752.594 8.67141 752.727 8.6085C752.794 8.57663 752.884 8.53549 752.99 8.4926C753.044 8.47063 753.112 8.4443 753.191 8.41668C753.231 8.40267 753.277 8.3874 753.327 8.37164L753.408 8.34713L753.453 8.33439C753.476 8.32779 753.5 8.32133 754.634 12.5537C753.5 8.32133 753.524 8.31501 753.548 8.30882L753.593 8.29758L753.675 8.27829C753.727 8.26678 753.774 8.25723 753.816 8.24933C753.898 8.23376 753.97 8.22254 754.028 8.21444C754.141 8.1986 754.24 8.18919 754.314 8.18322C754.46 8.17142 754.611 8.16518 754.763 8.16146C755.071 8.15393 755.545 8.15322 756.313 8.1675C757.857 8.19622 760.741 8.28872 766.166 8.54027C777.025 9.04376 798.176 10.1898 839.381 12.7598C847.937 13.2934 853.557 15.6521 857.218 19.1521C860.849 22.6241 861.949 26.6881 862.567 28.9952C863.433 32.2251 863.05 36.7032 861.333 40.665C859.544 44.7894 856.066 48.8819 850.305 50.4257L770.51 71.8066C770.511 71.8065 770.511 71.8064 769.377 67.5741C768.243 63.3418 768.243 63.3418 768.242 63.3419L848.037 41.9611C850.676 41.2538 852.363 39.4261 853.357 37.1349C854.421 34.6811 854.437 32.2482 854.168 31.2458C853.59 29.0904 852.976 27.1525 851.239 25.4919C849.532 23.8591 846.13 21.9542 838.876 21.5018C797.684 18.9326 776.588 17.79 765.799 17.2898C760.401 17.0394 757.61 16.9513 756.186 16.9248C756.044 16.9221 755.917 16.9201 755.804 16.9187C755.706 16.9766 755.598 17.0418 755.476 17.115C754.256 17.8501 751.883 19.3216 747.333 22.2378Z" fill="#FAF3EE"/>
<path fill-rule="evenodd" clip-rule="evenodd" d="M738.399 -23.3564C737.515 -21.3182 737.335 -18.4089 738.296 -14.8221C738.923 -12.4846 737.55 -10.0859 735.231 -9.46446C732.911 -8.84297 730.523 -10.234 729.897 -12.5715C728.59 -17.4494 728.525 -22.5094 730.424 -26.8868C732.389 -31.4185 736.233 -34.6821 741.593 -36.1182C746.952 -37.5544 751.913 -36.6501 755.881 -33.7081C759.714 -30.8662 762.188 -26.4518 763.495 -21.5739L767.464 -6.76071C769.39 0.427038 766.357 6.39143 763.439 10.1376C761.955 12.0433 760.386 13.5347 759.2 14.5461C758.602 15.056 758.088 15.4548 757.712 15.7339C757.524 15.8737 757.37 15.9841 757.255 16.0642L757.114 16.1616L757.068 16.1931L757.051 16.2045L757.044 16.2091C757.043 16.21 757.038 16.213 754.634 12.5537C752.23 8.89437 752.229 8.89523 752.228 8.89606L752.222 8.90011L752.269 8.86711C752.321 8.83056 752.41 8.76723 752.53 8.67831C752.77 8.49996 753.13 8.22171 753.563 7.85299C754.437 7.10726 755.558 6.03529 756.585 4.71626C758.691 2.01314 759.974 -1.11701 759.064 -4.51011L755.095 -19.3233C754.134 -22.9101 752.524 -25.3396 750.739 -26.6628C749.089 -27.886 746.9 -28.468 743.861 -27.6536C740.821 -26.8391 739.216 -25.2405 738.399 -23.3564Z" fill="#FAF3EE"/>
<path d="M768.242 63.3419C768.243 63.3418 768.243 63.3418 769.377 67.5741C770.511 71.8064 770.511 71.8065 770.51 71.8066M768.242 63.3419L688.449 84.7225C685.81 85.4297 683.434 84.6905 681.428 83.203C679.28 81.6099 678.05 79.5108 677.781 78.5084C677.204 76.353 676.767 74.3675 677.441 72.0609C678.103 69.7931 680.097 66.4425 686.152 62.424C720.541 39.6031 738.24 28.0655 747.333 22.2378C751.883 19.3216 754.256 17.8501 755.476 17.115C755.598 17.0418 755.706 16.9766 755.804 16.9187C755.917 16.9201 756.044 16.9221 756.186 16.9248C757.61 16.9513 760.401 17.0394 765.799 17.2898C776.588 17.79 797.684 18.9326 838.876 21.5018C846.13 21.9542 849.532 23.8591 851.239 25.4919C852.976 27.1525 853.59 29.0904 854.168 31.2458C854.437 32.2482 854.421 34.6811 853.357 37.1349C852.363 39.4261 850.676 41.2538 848.037 41.9611L768.242 63.3419ZM770.51 71.8066L690.717 93.1871C684.956 94.7309 679.897 92.9257 676.286 90.248C672.818 87.6759 670.248 83.9889 669.382 80.759C668.764 78.4519 667.685 74.3823 669.093 69.5598C670.514 64.6985 674.201 59.8459 681.345 55.1054C715.744 32.2774 733.488 20.7094 742.641 14.8439C747.213 11.9134 749.664 10.3914 750.987 9.59451C751.645 9.19827 752.056 8.96183 752.327 8.81426C752.46 8.74134 752.594 8.67141 752.727 8.6085C752.794 8.57663 752.884 8.5355 752.99 8.4926C753.044 8.47063 753.112 8.4443 753.191 8.41668C753.231 8.40267 753.277 8.3874 753.327 8.37164L753.408 8.34713L753.453 8.33439C753.476 8.32779 753.5 8.32133 754.634 12.5537M770.51 71.8066L850.305 50.4257C856.066 48.8819 859.544 44.7894 861.333 40.665C863.05 36.7032 863.433 32.2251 862.567 28.9952C861.949 26.6881 860.849 22.6241 857.218 19.1521C853.557 15.6521 847.937 13.2934 839.381 12.7598C798.176 10.1898 777.025 9.04376 766.166 8.54027C760.741 8.28872 757.857 8.19622 756.313 8.1675C755.545 8.15322 755.071 8.15393 754.763 8.16146C754.611 8.16518 754.46 8.17142 754.314 8.18322C754.24 8.18919 754.141 8.1986 754.028 8.21444C753.97 8.22254 753.898 8.23376 753.816 8.24933C753.774 8.25723 753.727 8.26678 753.675 8.27829L753.593 8.29758L753.548 8.30882C753.524 8.31501 753.5 8.32133 754.634 12.5537M754.634 12.5537C757.038 16.213 757.043 16.21 757.044 16.2091L757.051 16.2045L757.068 16.1931L757.114 16.1616L757.255 16.0642C757.37 15.9841 757.524 15.8737 757.712 15.7339C758.088 15.4548 758.602 15.056 759.2 14.5461C760.386 13.5347 761.955 12.0433 763.439 10.1376C766.357 6.39143 769.39 0.42704 767.464 -6.76071L763.495 -21.5739C762.188 -26.4518 759.714 -30.8662 755.881 -33.7081C751.913 -36.6501 746.952 -37.5544 741.593 -36.1182C736.233 -34.6821 732.389 -31.4185 730.424 -26.8868C728.525 -22.5094 728.59 -17.4494 729.897 -12.5715C730.523 -10.234 732.911 -8.84298 735.231 -9.46446C737.55 -10.0859 738.923 -12.4846 738.296 -14.8221C737.335 -18.4089 737.515 -21.3182 738.399 -23.3564C739.216 -25.2405 740.821 -26.8391 743.861 -27.6536C746.9 -28.468 749.089 -27.886 750.739 -26.6628C752.524 -25.3396 754.134 -22.9101 755.095 -19.3233L759.064 -4.51011C759.974 -1.11701 758.691 2.01315 756.585 4.71626C755.558 6.03528 754.437 7.10726 753.563 7.85299C753.13 8.22171 752.77 8.49996 752.53 8.67831C752.41 8.76723 752.321 8.83056 752.269 8.86711L752.222 8.9001L752.228 8.89606C752.229 8.89523 752.23 8.89437 754.634 12.5537Z" stroke="#FAF3EE" stroke-width="2"/>
<path d="M1057.65 303.985C1072.71 304.889 1078.34 295.146 1081.41 294.323C1086.43 294.624 1090.66 296.467 1094.58 298.504C1098.31 300.887 1102.02 303.626 1104.8 307.824C1105.62 310.897 1099.99 320.641 1108.31 333.236C1122.17 354.229 1154.69 383.398 1150.72 399.288C1150.72 399.288 1149.29 406.258 1147.34 405.134C1141.5 401.76 1137.6 399.509 1134.83 395.31C1134.1 393.256 1133.32 391.058 1132.45 388.745C1125.09 369.027 1111.93 340.959 1080.73 322.507C1049.15 304.711 1018.26 307.345 997.501 310.829C995.066 311.238 992.771 311.659 990.63 312.059C985.608 311.758 981.709 309.507 975.866 306.133C973.919 305.009 979.241 300.287 979.241 300.287C991.013 288.897 1032.54 302.478 1057.65 303.985Z" fill="#FAF3EE"/>
<path d="M1081.41 294.323L1081.44 293.824L1081.36 293.819L1081.28 293.84L1081.41 294.323ZM1057.65 303.985L1057.68 303.486L1057.65 303.985ZM979.241 300.287L979.573 300.661L979.581 300.654L979.588 300.646L979.241 300.287ZM1094.58 298.504L1094.85 298.083L1094.83 298.071L1094.81 298.06L1094.58 298.504ZM990.63 312.059L990.6 312.558L990.662 312.562L990.722 312.551L990.63 312.059ZM997.501 310.829L997.584 311.323L997.501 310.829ZM1080.73 322.507L1080.98 322.077L1080.97 322.072L1080.73 322.507ZM1104.8 307.824L1105.28 307.695L1105.26 307.616L1105.21 307.549L1104.8 307.824ZM1108.31 333.236L1108.73 332.961L1108.31 333.236ZM1150.72 399.288L1150.23 399.166L1150.23 399.177L1150.23 399.187L1150.72 399.288ZM1134.83 395.31L1134.35 395.476L1134.37 395.534L1134.41 395.586L1134.83 395.31ZM1132.45 388.745L1132.92 388.57L1132.45 388.745ZM1097.55 269.868C1097.41 270.108 1097.5 270.413 1097.74 270.551C1097.98 270.69 1098.28 270.608 1098.42 270.368L1097.55 269.868ZM1081.28 293.84C1080.81 293.967 1080.32 294.252 1079.83 294.606C1079.34 294.963 1078.79 295.42 1078.2 295.926C1077 296.944 1075.56 298.191 1073.75 299.384C1070.15 301.761 1065.08 303.93 1057.68 303.486L1057.62 304.484C1065.27 304.944 1070.55 302.694 1074.3 300.219C1076.17 298.987 1077.65 297.7 1078.84 296.688C1079.44 296.179 1079.96 295.747 1080.42 295.417C1080.88 295.084 1081.24 294.885 1081.54 294.806L1081.28 293.84ZM1057.68 303.486C1051.43 303.111 1044.15 301.984 1036.54 300.677C1028.94 299.371 1021.02 297.886 1013.51 296.805C1006.01 295.723 998.891 295.041 992.901 295.348C986.929 295.655 981.971 296.95 978.893 299.927L979.588 300.646C982.397 297.929 987.043 296.65 992.952 296.347C998.843 296.045 1005.88 296.716 1013.37 297.794C1020.86 298.873 1028.75 300.353 1036.37 301.662C1043.98 302.97 1051.31 304.105 1057.62 304.484L1057.68 303.486ZM1094.81 298.06C1090.87 296.014 1086.57 294.132 1081.44 293.824L1081.38 294.822C1086.3 295.117 1090.44 296.92 1094.35 298.948L1094.81 298.06ZM979.241 300.287C978.909 299.913 978.909 299.913 978.909 299.913C978.909 299.913 978.908 299.913 978.908 299.913C978.908 299.913 978.908 299.914 978.907 299.914C978.907 299.915 978.906 299.916 978.904 299.917C978.901 299.92 978.897 299.923 978.892 299.928C978.881 299.938 978.866 299.951 978.846 299.969C978.806 300.006 978.748 300.058 978.676 300.125C978.531 300.259 978.327 300.451 978.089 300.685C977.614 301.152 976.996 301.791 976.437 302.471C975.886 303.14 975.359 303.888 975.103 304.57C974.976 304.911 974.897 305.284 974.959 305.644C975.026 306.031 975.247 306.353 975.616 306.566L976.116 305.7C975.997 305.631 975.959 305.56 975.944 305.474C975.925 305.36 975.942 305.18 976.04 304.921C976.235 304.401 976.673 303.758 977.209 303.106C977.737 302.464 978.328 301.853 978.79 301.399C979.02 301.173 979.217 300.987 979.356 300.859C979.425 300.794 979.48 300.744 979.517 300.711C979.536 300.694 979.55 300.681 979.559 300.673C979.564 300.669 979.567 300.665 979.57 300.663C979.571 300.662 979.571 300.662 979.572 300.661C979.572 300.661 979.572 300.661 979.572 300.661C979.573 300.661 979.573 300.661 979.573 300.661C979.573 300.661 979.573 300.661 979.241 300.287ZM975.616 306.566C981.436 309.926 985.439 312.248 990.6 312.558L990.66 311.56C985.777 311.267 981.982 309.087 976.116 305.7L975.616 306.566ZM990.722 312.551C992.862 312.15 995.154 311.731 997.584 311.323L997.418 310.336C994.979 310.746 992.68 311.167 990.538 311.568L990.722 312.551ZM997.584 311.323C1018.3 307.844 1049.05 305.231 1080.48 322.943L1080.97 322.072C1049.24 304.191 1018.21 306.845 997.418 310.336L997.584 311.323ZM1104.31 307.954C1104.39 308.248 1104.4 308.664 1104.34 309.232C1104.29 309.794 1104.17 310.456 1104.03 311.23C1103.75 312.767 1103.38 314.697 1103.24 316.929C1102.97 321.412 1103.67 327.109 1107.89 333.512L1108.73 332.961C1104.64 326.768 1103.98 321.295 1104.24 316.989C1104.37 314.827 1104.73 312.958 1105.01 311.41C1105.15 310.641 1105.28 309.94 1105.34 309.332C1105.4 308.73 1105.41 308.168 1105.28 307.695L1104.31 307.954ZM1107.89 333.512C1111.37 338.785 1116.02 344.563 1120.96 350.498C1125.9 356.441 1131.13 362.54 1135.81 368.485C1140.49 374.429 1144.59 380.191 1147.27 385.443C1149.96 390.712 1151.18 395.376 1150.23 399.166L1151.2 399.409C1152.24 395.255 1150.88 390.313 1148.16 384.988C1145.43 379.647 1141.28 373.824 1136.6 367.866C1131.91 361.908 1126.66 355.786 1121.73 349.859C1116.79 343.924 1112.18 338.183 1108.73 332.961L1107.89 333.512ZM1094.32 298.926C1098.03 301.298 1101.66 303.991 1104.38 308.1L1105.21 307.549C1102.38 303.261 1098.6 300.477 1094.85 298.083L1094.32 298.926ZM1150.72 399.288C1150.23 399.187 1150.23 399.187 1150.23 399.187C1150.23 399.187 1150.23 399.187 1150.23 399.187C1150.23 399.187 1150.23 399.188 1150.23 399.188C1150.23 399.189 1150.22 399.19 1150.22 399.191C1150.22 399.194 1150.22 399.199 1150.22 399.205C1150.22 399.217 1150.22 399.236 1150.21 399.26C1150.2 399.309 1150.18 399.382 1150.16 399.474C1150.12 399.659 1150.06 399.922 1149.98 400.234C1149.82 400.861 1149.58 401.678 1149.29 402.457C1148.99 403.247 1148.66 403.948 1148.3 404.377C1148.13 404.591 1147.98 404.696 1147.87 404.736C1147.79 404.766 1147.71 404.769 1147.59 404.701L1147.09 405.567C1147.46 405.779 1147.85 405.81 1148.22 405.674C1148.56 405.548 1148.84 405.293 1149.07 405.012C1149.54 404.45 1149.92 403.619 1150.23 402.808C1150.53 401.984 1150.78 401.129 1150.95 400.484C1151.03 400.161 1151.09 399.888 1151.14 399.696C1151.16 399.6 1151.18 399.524 1151.19 399.471C1151.19 399.445 1151.2 399.424 1151.2 399.41C1151.2 399.403 1151.2 399.398 1151.2 399.394C1151.2 399.392 1151.2 399.391 1151.2 399.39C1151.2 399.389 1151.2 399.389 1151.2 399.389C1151.2 399.389 1151.2 399.388 1151.2 399.388C1151.21 399.388 1151.21 399.388 1150.72 399.288ZM1147.59 404.701C1141.72 401.313 1137.94 399.117 1135.24 395.035L1134.41 395.586C1137.26 399.9 1141.27 402.206 1147.09 405.567L1147.59 404.701ZM1135.3 395.144C1134.57 393.089 1133.79 390.887 1132.92 388.57L1131.99 388.92C1132.85 391.229 1133.63 393.423 1134.35 395.476L1135.3 395.144ZM1132.92 388.57C1125.55 368.815 1112.33 340.616 1080.98 322.077L1080.47 322.938C1111.53 341.302 1124.64 369.238 1131.99 388.92L1132.92 388.57ZM996.53 310.846L1132.93 389.596L1133.43 388.73L997.03 309.98L996.53 310.846ZM1094.66 299.376L1101.41 287.685L1100.55 287.185L1093.8 298.876L1094.66 299.376ZM1101.41 287.685C1101.77 287.065 1102.53 286.763 1103.8 286.646C1104.42 286.588 1105.11 286.578 1105.88 286.576C1106.63 286.573 1107.45 286.578 1108.29 286.549C1111.65 286.43 1115.52 285.749 1117.9 281.618L1117.04 281.118C1114.92 284.783 1111.53 285.434 1108.26 285.549C1107.44 285.578 1106.64 285.573 1105.87 285.576C1105.11 285.578 1104.37 285.588 1103.71 285.65C1102.4 285.771 1101.17 286.103 1100.55 287.185L1101.41 287.685ZM1117.9 281.618C1121.14 276.012 1119.7 269.089 1113.6 265.568L1113.1 266.434C1118.7 269.663 1120.01 275.963 1117.04 281.118L1117.9 281.618ZM1113.6 265.568C1110.54 263.796 1107.4 263.33 1104.58 264.098C1101.75 264.866 1099.3 266.85 1097.55 269.868L1098.42 270.368C1100.05 267.541 1102.31 265.751 1104.84 265.063C1107.37 264.376 1110.23 264.774 1113.1 266.434L1113.6 265.568Z" fill="#FAF3EE"/>
<path d="M198.648 -0.354984C197.744 14.7113 207.487 20.3366 208.31 23.4098C208.008 28.4319 206.165 32.6563 204.129 36.5841C201.745 40.312 199.007 44.0227 194.809 46.7948C191.736 47.6187 181.992 41.9934 169.397 50.3097C148.404 64.1702 119.235 96.6926 103.345 92.7147C103.345 92.7147 96.3752 91.2864 97.4992 89.3396C100.873 83.4959 103.124 79.5969 107.323 76.8248C109.377 76.1013 111.575 75.3178 113.888 74.4544C133.606 67.0936 161.674 53.9284 180.126 22.726C197.922 -8.85516 195.288 -39.7425 191.803 -60.4995C191.395 -62.9342 190.974 -65.2294 190.574 -67.3701C190.875 -72.3922 193.126 -76.2912 196.5 -82.1349C197.624 -84.0818 202.346 -78.7598 202.346 -78.7598C213.736 -66.9878 200.155 -25.4654 198.648 -0.354984Z" fill="#FAF3EE"/>
<path d="M208.31 23.4098L208.809 23.4398L208.814 23.3588L208.793 23.2805L208.31 23.4098ZM198.648 -0.354984L199.147 -0.325023L198.648 -0.354984ZM202.346 -78.7598L201.972 -78.428L201.979 -78.4199L201.987 -78.4122L202.346 -78.7598ZM204.129 36.5841L204.55 36.8534L204.562 36.8343L204.572 36.8143L204.129 36.5841ZM190.574 -67.3701L190.075 -67.4001L190.071 -67.3387L190.082 -67.2782L190.574 -67.3701ZM191.803 -60.4995L191.31 -60.4167L191.803 -60.4995ZM180.126 22.726L180.556 22.9806L180.561 22.9715L180.126 22.726ZM194.809 46.7948L194.938 47.2777L195.016 47.2567L195.084 47.2121L194.809 46.7948ZM169.397 50.3097L169.672 50.7269L169.397 50.3097ZM103.345 92.7147L103.467 92.2297L103.456 92.2271L103.445 92.2249L103.345 92.7147ZM107.323 76.8248L107.157 76.3532L107.099 76.3736L107.047 76.4075L107.323 76.8248ZM113.888 74.4544L114.063 74.9228L113.888 74.4544ZM232.764 39.5526C232.525 39.4145 232.219 39.4964 232.081 39.7356C231.943 39.9747 232.025 40.2805 232.264 40.4186L232.764 39.5526ZM208.793 23.2805C208.666 22.8069 208.38 22.3233 208.027 21.8323C207.67 21.336 207.213 20.7903 206.707 20.195C205.688 18.9959 204.442 17.5567 203.248 15.7493C200.872 12.1496 198.702 7.08223 199.147 -0.325023L198.149 -0.38494C197.689 7.27407 199.939 12.5524 202.414 16.3003C203.646 18.1667 204.933 19.6516 205.945 20.8424C206.454 21.4421 206.886 21.9578 207.215 22.4163C207.549 22.88 207.748 23.2444 207.827 23.5391L208.793 23.2805ZM199.147 -0.325023C199.522 -6.57232 200.649 -13.8515 201.956 -21.4591C203.261 -29.0564 204.747 -36.9837 205.828 -44.488C206.909 -51.9916 207.592 -59.1091 207.285 -65.0995C206.978 -71.0715 205.683 -76.0298 202.705 -79.1075L201.987 -78.4122C204.704 -75.6039 205.983 -70.9573 206.286 -65.0483C206.588 -59.1576 205.917 -52.1179 204.838 -44.6306C203.76 -37.144 202.279 -29.2468 200.97 -21.6284C199.663 -14.0204 198.527 -6.69286 198.149 -0.38494L199.147 -0.325023ZM204.572 36.8143C206.618 32.869 208.501 28.5688 208.809 23.4398L207.811 23.3798C207.516 28.295 205.712 32.4436 203.685 36.3539L204.572 36.8143ZM202.346 -78.7598C202.72 -79.0917 202.72 -79.0917 202.72 -79.0918C202.72 -79.0919 202.72 -79.092 202.72 -79.0921C202.719 -79.0924 202.719 -79.0927 202.719 -79.0931C202.718 -79.0939 202.717 -79.095 202.716 -79.0964C202.713 -79.0993 202.71 -79.1034 202.705 -79.1087C202.695 -79.1193 202.681 -79.1348 202.663 -79.1547C202.627 -79.1945 202.575 -79.2522 202.508 -79.3245C202.374 -79.4692 202.181 -79.6731 201.947 -79.9114C201.481 -80.3866 200.842 -81.0045 200.162 -81.5635C199.493 -82.1144 198.745 -82.6416 198.063 -82.8971C197.722 -83.025 197.349 -83.1037 196.989 -83.0416C196.602 -82.9749 196.28 -82.7534 196.067 -82.3849L196.933 -81.8849C197.001 -82.0033 197.073 -82.0413 197.159 -82.0561C197.272 -82.0757 197.453 -82.058 197.712 -81.9607C198.232 -81.7659 198.875 -81.3277 199.527 -80.7914C200.169 -80.2633 200.78 -79.6724 201.234 -79.2106C201.46 -78.9803 201.646 -78.7836 201.774 -78.6449C201.838 -78.5755 201.888 -78.5207 201.922 -78.4836C201.939 -78.465 201.952 -78.4508 201.96 -78.4414C201.964 -78.4367 201.967 -78.4332 201.969 -78.431C201.97 -78.4298 201.971 -78.429 201.971 -78.4285C201.972 -78.4283 201.972 -78.4281 201.972 -78.428C201.972 -78.428 201.972 -78.428 201.972 -78.4279C201.972 -78.428 201.972 -78.428 202.346 -78.7598ZM196.067 -82.3849C192.706 -76.5641 190.384 -72.5611 190.075 -67.4001L191.073 -67.3402C191.366 -72.2234 193.546 -76.0183 196.933 -81.8849L196.067 -82.3849ZM190.082 -67.2782C190.483 -65.1387 190.902 -62.8469 191.31 -60.4167L192.296 -60.5823C191.887 -63.0214 191.466 -65.3202 191.065 -67.4621L190.082 -67.2782ZM191.31 -60.4167C194.788 -39.698 197.402 -8.95073 179.69 22.4805L180.561 22.9715C198.442 -8.75959 195.787 -39.7869 192.296 -60.5823L191.31 -60.4167ZM194.679 46.3119C194.384 46.3909 193.969 46.4008 193.401 46.3438C192.839 46.2874 192.177 46.1715 191.403 46.0302C189.866 45.7496 187.936 45.3775 185.704 45.2435C181.221 44.9744 175.524 45.6648 169.121 49.8924L169.672 50.7269C175.865 46.6383 181.338 45.9832 185.644 46.2417C187.806 46.3715 189.675 46.7314 191.223 47.014C191.991 47.1542 192.693 47.2777 193.301 47.3388C193.903 47.3992 194.464 47.4047 194.938 47.2777L194.679 46.3119ZM169.121 49.8924C163.848 53.3743 158.07 58.0217 152.135 62.9578C146.191 67.9006 140.092 73.1312 134.148 77.8086C128.203 82.4865 122.442 86.5875 117.19 89.271C111.921 91.9628 107.257 93.1786 103.467 92.2297L103.224 93.1998C107.378 94.2397 112.319 92.882 117.645 90.1615C122.986 87.4326 128.809 83.2826 134.766 78.5945C140.725 73.906 146.847 68.6558 152.774 63.7267C158.709 58.7908 164.449 54.1753 169.672 50.7269L169.121 49.8924ZM203.707 36.3148C201.335 40.0261 198.642 43.6645 194.533 46.3775L195.084 47.2121C199.372 44.381 202.156 40.5978 204.55 36.8534L203.707 36.3148ZM103.345 92.7147C103.445 92.2249 103.446 92.2249 103.446 92.2249C103.445 92.2249 103.445 92.2249 103.445 92.2249C103.445 92.2249 103.445 92.2248 103.445 92.2248C103.444 92.2246 103.443 92.2244 103.442 92.2241C103.439 92.2235 103.434 92.2225 103.428 92.2212C103.416 92.2186 103.397 92.2147 103.372 92.2094C103.323 92.1988 103.251 92.183 103.159 92.162C102.974 92.12 102.711 92.0578 102.399 91.977C101.772 91.815 100.954 91.5807 100.176 91.289C99.3858 90.9928 98.6849 90.655 98.2562 90.3022C98.0421 90.126 97.9367 89.9788 97.8969 89.8708C97.8666 89.7885 97.8639 89.7079 97.9322 89.5896L97.0662 89.0896C96.8535 89.458 96.8228 89.8479 96.9585 90.2164C97.0847 90.5591 97.3394 90.8429 97.6207 91.0744C98.1827 91.5369 99.0135 91.9212 99.8252 92.2254C100.649 92.5342 101.504 92.7786 102.149 92.9452C102.472 93.0288 102.745 93.0933 102.937 93.1371C103.033 93.159 103.109 93.1757 103.162 93.187C103.188 93.1926 103.208 93.197 103.222 93.1999C103.229 93.2014 103.235 93.2025 103.238 93.2033C103.24 93.2036 103.242 93.2039 103.243 93.2042C103.243 93.2043 103.244 93.2043 103.244 93.2044C103.244 93.2044 103.244 93.2045 103.244 93.2045C103.245 93.2045 103.245 93.2045 103.345 92.7147ZM97.9322 89.5896C101.319 83.723 103.516 79.9374 107.598 77.242L107.047 76.4075C102.733 79.2563 100.427 83.2688 97.0662 89.0896L97.9322 89.5896ZM107.489 77.2964C109.544 76.5725 111.745 75.7878 114.063 74.9228L113.713 73.986C111.404 74.8477 109.21 75.6301 107.157 76.3532L107.489 77.2964ZM114.063 74.9228C133.817 67.5484 162.016 54.331 180.556 22.9805L179.695 22.4715C161.331 53.5258 133.395 66.6388 113.713 73.986L114.063 74.9228ZM191.786 -61.4706L113.037 74.9277L113.903 75.4277L192.652 -60.9706L191.786 -61.4706ZM203.257 36.6614L214.948 43.4114L215.448 42.5453L203.757 35.7954L203.257 36.6614ZM214.948 43.4114C215.567 43.7689 215.87 44.5275 215.987 45.7972C216.044 46.4159 216.055 47.1119 216.057 47.8749C216.06 48.6312 216.055 49.452 216.084 50.2912C216.203 53.6528 216.884 57.5194 221.014 59.904L221.514 59.038C217.85 56.9222 217.199 53.5246 217.084 50.256C217.055 49.4376 217.06 48.6405 217.057 47.8716C217.055 47.1094 217.045 46.373 216.983 45.705C216.862 44.4014 216.53 43.1698 215.448 42.5453L214.948 43.4114ZM221.014 59.904C226.621 63.1407 233.544 61.7016 237.065 55.6033L236.199 55.1033C232.97 60.6962 226.67 62.0145 221.514 59.038L221.014 59.904ZM237.065 55.6033C238.837 52.5348 239.302 49.4001 238.535 46.5752C237.767 43.751 235.782 41.2951 232.764 39.5526L232.264 40.4186C235.092 42.051 236.882 44.3074 237.57 46.8375C238.257 49.3668 237.859 52.2285 236.199 55.1033L237.065 55.6033Z" fill="#FAF3EE"/>
</g>
<defs>
<clipPath id="clip0_431_8351">
<rect width="1120" height="500" fill="white"/>
</clipPath>
</defs>
</svg>
