<svg width="57" height="20" viewBox="0 0 57 20" fill="none" xmlns="http://www.w3.org/2000/svg">
<path d="M3.03547 8.88571H6.90356V11.7429H3.03547V20H0.0390625V0H7.96592V2.85714H3.03547V8.88571Z" fill="#CD9663"/>
<path d="M9.69938 0H18.961V2.85714H15.8284V20H12.832V2.85714H9.69938V0Z" fill="#CD9663"/>
<path d="M22.9874 8.43784C22.9874 8.03448 22.9874 7.64329 22.9874 7.26427C22.9874 6.88525 22.9874 6.4645 22.9874 6.00203V3.48797C22.9874 3.01159 22.9874 2.58041 22.9874 2.19444C22.9874 1.80846 22.9874 1.41032 22.9874 1H24.5014C24.5014 1.41032 24.5014 1.80846 24.5014 2.19444C24.5014 2.58041 24.5014 3.01159 24.5014 3.48797V6.00203C24.5014 6.4645 24.5014 6.88525 24.5014 7.26427C24.5014 7.64329 24.5014 8.03448 24.5014 8.43784H22.9874Z" fill="#CD9663"/>
<path d="M26.166 8.43784C26.166 8.03448 26.166 7.64329 26.166 7.26427C26.166 6.88525 26.166 6.4645 26.166 6.00203V3.48797C26.166 3.01159 26.166 2.58041 26.166 2.19444C26.166 1.80846 26.166 1.41032 26.166 1H27.4682C27.8564 1.54593 28.2234 2.06578 28.5693 2.55955C28.9187 3.05332 29.2663 3.54535 29.6121 4.03564L30.9726 5.9603H31.0837V3.48797C31.0837 3.01159 31.0837 2.58041 31.0837 2.19444C31.0837 1.80846 31.0837 1.41032 31.0837 1H32.4812C32.4812 1.41032 32.4812 1.80846 32.4812 2.19444C32.4812 2.58041 32.4812 3.01159 32.4812 3.48797V6.00203C32.4812 6.4645 32.4812 6.88525 32.4812 7.26427C32.4812 7.64329 32.4812 8.03448 32.4812 8.43784H31.1949C30.8773 7.9858 30.5438 7.51463 30.1944 7.02434C29.845 6.53057 29.4621 5.98986 29.0457 5.4022L27.6694 3.45668H27.5582V6.00203C27.5582 6.4645 27.5582 6.88525 27.5582 7.26427C27.5582 7.64329 27.5582 8.03448 27.5582 8.43784H26.166Z" fill="#CD9663"/>
<path d="M40.227 8.43784C40.227 8.03448 40.227 7.64329 40.227 7.26427C40.227 6.88525 40.227 6.4645 40.227 6.00203V3.48797C40.227 3.01159 40.227 2.58041 40.227 2.19444C40.227 1.80846 40.227 1.41032 40.227 1H41.7145C41.7145 1.41032 41.7145 1.80846 41.7145 2.19444C41.7145 2.58041 41.7145 3.01159 41.7145 3.48797V5.77253C41.7145 6.235 41.7145 6.65575 41.7145 7.03477C41.7145 7.41032 41.7145 6.75312 41.7145 7.15995H42.6356C43.0132 7.15995 43.3449 7.15995 43.6308 7.15995C43.9202 7.15995 44.1884 7.15995 44.4354 7.15995C44.6824 7.15995 44.9348 7.15995 45.1924 7.15995V8.43784H40.227Z" fill="#CD9663"/>
<path d="M49.283 8.56824C48.5349 8.56824 47.9314 8.44828 47.4727 8.20835C47.0139 7.96494 46.6786 7.62243 46.4669 7.18082C46.2587 6.73573 46.1546 6.2124 46.1546 5.61084C46.1546 5.47175 46.1546 5.28919 46.1546 5.06317C46.1546 4.83715 46.1546 4.58679 46.1546 4.31208C46.1546 4.03738 46.1546 3.76268 46.1546 3.48797C46.1546 3.01159 46.1546 2.58041 46.1546 2.19444C46.1546 1.80846 46.1546 1.41032 46.1546 1H47.6368C47.6368 1.41032 47.6368 1.80846 47.6368 2.19444C47.6368 2.58041 47.6368 3.01159 47.6368 3.48797V5.51695C47.6368 5.90293 47.6915 6.23327 47.8009 6.50797C47.9103 6.78267 48.0849 6.99305 48.3249 7.13909C48.5684 7.28166 48.886 7.35294 49.2778 7.35294C49.6765 7.35294 49.9941 7.28166 50.2306 7.13909C50.4706 6.99305 50.6417 6.78267 50.7441 6.50797C50.8499 6.23327 50.9029 5.90119 50.9029 5.51174V3.48797C50.9029 3.01159 50.9029 2.58041 50.9029 2.19444C50.9029 1.80846 50.9029 1.41032 50.9029 1H52.3851C52.3851 1.41032 52.3851 1.80846 52.3851 2.19444C52.3851 2.58041 52.3851 3.01159 52.3851 3.48797C52.3851 3.76268 52.3851 4.03912 52.3851 4.3173C52.3851 4.592 52.3851 4.8441 52.3851 5.0736C52.3851 5.3031 52.3851 5.48392 52.3851 5.61605C52.3851 6.21414 52.2757 6.73573 52.0569 7.18082C51.8381 7.62243 51.501 7.96494 51.0458 8.20835C50.5906 8.44828 50.003 8.56824 49.283 8.56824Z" fill="#CD9663"/>
<path d="M29.2677 18.8696C29.2677 18.4662 29.2677 18.0751 29.2677 17.696C29.2677 17.317 29.2677 16.8963 29.2677 16.4338V13.9197C29.2677 13.4433 29.2677 13.0122 29.2677 12.6262C29.2677 12.2402 29.2677 11.8421 29.2677 11.4318H30.5699C30.9581 11.9777 31.3251 12.4975 31.671 12.9913C32.0204 13.4851 32.368 13.9771 32.7138 14.4674L34.0743 16.3921H34.1854V13.9197C34.1854 13.4433 34.1854 13.0122 34.1854 12.6262C34.1854 12.2402 34.1854 11.8421 34.1854 11.4318H35.5829C35.5829 11.8421 35.5829 12.2402 35.5829 12.6262C35.5829 13.0122 35.5829 13.4433 35.5829 13.9197V16.4338C35.5829 16.8963 35.5829 17.317 35.5829 17.696C35.5829 18.0751 35.5829 18.4662 35.5829 18.8696H34.2966C33.979 18.4176 33.6455 17.9464 33.2961 17.4561C32.9467 16.9623 32.5638 16.4216 32.1474 15.834L30.7711 13.8884H30.6599V16.4338C30.6599 16.8963 30.6599 17.317 30.6599 17.696C30.6599 18.0751 30.6599 18.4662 30.6599 18.8696H29.2677Z" fill="#CD9663"/>
<path d="M40.7966 19C40.1896 19 39.6426 18.9079 39.1556 18.7236C38.6686 18.5358 38.2539 18.2715 37.9116 17.9307C37.5693 17.5865 37.3064 17.1797 37.1228 16.7102C36.9429 16.2373 36.8529 15.7175 36.8529 15.1507C36.8529 14.4031 37.0064 13.7389 37.3134 13.1582C37.624 12.574 38.0633 12.1168 38.6315 11.7864C39.1997 11.4526 39.8755 11.2857 40.6589 11.2857C40.9024 11.2857 41.1424 11.3014 41.3789 11.3327C41.6188 11.364 41.8465 11.4074 42.0617 11.4631C42.2805 11.5187 42.4817 11.5813 42.6652 11.6508C42.8522 11.7169 43.0163 11.7882 43.1575 11.8647L43.041 13.2312C42.7693 13.0643 42.5046 12.9305 42.247 12.8296C41.9894 12.7253 41.7406 12.6505 41.5006 12.6053C41.2642 12.5601 41.0348 12.5375 40.8125 12.5375C40.3466 12.5375 39.9302 12.6401 39.5632 12.8453C39.1997 13.0504 38.9138 13.3477 38.7056 13.7372C38.4974 14.1266 38.3933 14.5978 38.3933 15.1507C38.3933 15.5088 38.4462 15.8479 38.5521 16.1678C38.6615 16.4842 38.8238 16.7641 39.0391 17.0075C39.2544 17.2509 39.5226 17.4422 39.8437 17.5813C40.1684 17.7169 40.546 17.7847 40.9766 17.7847C41.1459 17.7847 41.3171 17.7743 41.49 17.7534C41.6629 17.7291 41.8359 17.6926 42.0088 17.6439C42.1817 17.5952 42.3529 17.5291 42.5223 17.4457C42.6917 17.3622 42.8593 17.2614 43.0252 17.1431L43.1151 18.4941C42.9669 18.581 42.8011 18.6575 42.6176 18.7236C42.434 18.7861 42.2417 18.8383 42.0406 18.88C41.8429 18.9218 41.6382 18.9513 41.4265 18.9687C41.2148 18.9896 41.0048 19 40.7966 19Z" fill="#CD9663"/>
<path d="M34.127 7.26427V8.43784H35.5828V7.26427V5.35526H36.5674H37.7584H38.7695V4.17647H37.7849H36.5726H35.5828V2.22573H37.8802H38.9547V1H34.127V2.19444V3.48797V6.00203V7.26427Z" fill="#CD9663"/>
<path d="M22.9609 17.696V18.8696H27.8998V17.6543H26.7829H25.5495H24.4114V17.4665V16.2043V15.6879H25.4807H26.677H27.6828V14.5352H26.7035H25.486H24.4114V14.144V12.6471H26.7882H27.8628V11.4318H22.9609V12.6262V13.9145V16.4338V17.696Z" fill="#CD9663"/>
<path d="M44.466 17.696V18.8696H49.4049V17.6543H48.2879H47.0545H45.9164V17.4665V16.2043V15.6879H46.9857H48.1821H49.1878V14.5352H48.2085H46.991H45.9164V14.144V12.8557V12.6471H46.9434H48.2932H49.3678V11.4318H44.466V12.6262V13.9145V16.4338V17.696Z" fill="#CD9663"/>
<path fill-rule="evenodd" clip-rule="evenodd" d="M50.7728 18.8696V11.4318H53.5519C54.1518 11.4318 54.6582 11.4996 55.0711 11.6352C55.484 11.7673 55.7946 11.9864 56.0028 12.2924C56.2145 12.5984 56.3204 13.0122 56.3204 13.5338C56.3204 13.9545 56.2357 14.337 56.0663 14.6813C55.9005 15.0255 55.6287 15.3002 55.2511 15.5054C55.0804 15.5974 54.8839 15.6688 54.6618 15.7196L55.3888 16.7154C55.5581 16.9449 55.7364 17.1901 55.9234 17.4509C56.114 17.7117 56.2992 17.9655 56.4792 18.2124C56.6627 18.4593 56.8233 18.6784 56.9609 18.8696H55.267C55.0588 18.5706 54.8576 18.2837 54.6635 18.009C54.473 17.7308 54.2859 17.4613 54.1024 17.2005L53.3294 16.0895H52.2232V18.8696H50.7728ZM52.2232 14.9577H53.2819C53.6136 14.9577 53.8907 14.9194 54.113 14.8429C54.3389 14.763 54.5083 14.6326 54.6212 14.4518C54.7341 14.2675 54.7906 14.0188 54.7906 13.7059C54.7906 13.4625 54.7518 13.2677 54.6741 13.1217C54.6 12.9757 54.4994 12.8644 54.3724 12.7879C54.2453 12.7114 54.1059 12.661 53.9542 12.6366C53.806 12.6123 53.656 12.6001 53.5042 12.6001H52.2232V14.9577Z" fill="#CD9663"/>
</svg>
