<svg width="24" height="24" viewBox="0 0 24 24" fill="none" xmlns="http://www.w3.org/2000/svg">
<mask id="mask0_678_11667" style="mask-type:alpha" maskUnits="userSpaceOnUse" x="1" y="1" width="22" height="22">
<rect x="1" y="1" width="22" height="22" rx="11" fill="#C4C4C4"/>
</mask>
<g mask="url(#mask0_678_11667)">
<circle cx="12" cy="9.5" r="3.5" stroke="#AAAAAA" stroke-width="2"/>
<path d="M19 21.3636C19 22.1585 18.8513 22.6252 18.6597 22.917C18.4777 23.1941 18.186 23.422 17.6664 23.5987C17.127 23.782 16.4001 23.8896 15.4299 23.9448C14.4658 23.9997 13.3343 24 12 24C10.6668 24 9.53143 23.9997 8.56297 23.9515C7.58858 23.903 6.84946 23.8081 6.29685 23.6438C5.75472 23.4825 5.46932 23.2774 5.30424 23.0574C5.13906 22.8373 5 22.4765 5 21.8182C5 18.3574 8.2086 16 12 16C13.8994 16 15.6821 16.4979 16.9607 17.4134C18.2091 18.3072 19 19.607 19 21.3636Z" stroke="#AAAAAA" stroke-width="2"/>
<rect x="2" y="2" width="20" height="20" rx="10" stroke="#AAAAAA" stroke-width="2"/>
</g>
</svg>
