<svg width="24" height="24" viewBox="0 0 24 24" fill="none" xmlns="http://www.w3.org/2000/svg">
<g id="Social" clip-path="url(#clip0_718_1444)">
<path id="Vector" d="M12 24C18.6274 24 24 18.6274 24 12C24 5.37259 18.6274 0 12 0C5.37259 0 0 5.37259 0 12C0 18.6274 5.37259 24 12 24Z" fill="#34AADF"/>
<path id="Vector_2" d="M4.99432 11.8959C4.99432 11.8959 10.9943 9.4335 13.0752 8.56643C13.8729 8.21962 16.5781 7.10976 16.5781 7.10976C16.5781 7.10976 17.8267 6.62424 17.7226 7.80341C17.6879 8.28898 17.4104 9.98839 17.133 11.8266C16.7168 14.4277 16.2659 17.2717 16.2659 17.2717C16.2659 17.2717 16.1966 18.0694 15.607 18.2081C15.0174 18.3468 14.0463 17.7226 13.8729 17.5838C13.7341 17.4798 11.2717 15.9191 10.37 15.156C10.1272 14.948 9.84979 14.5318 10.4047 14.0462C11.6532 12.9017 13.1446 11.4798 14.0463 10.578C14.4625 10.1618 14.8786 9.19072 13.1446 10.3699C10.6822 12.0693 8.25442 13.6647 8.25442 13.6647C8.25442 13.6647 7.69949 14.0115 6.65905 13.6994C5.61855 13.3873 4.40468 12.9711 4.40468 12.9711C4.40468 12.9711 3.57237 12.4508 4.99432 11.8959Z" fill="white"/>
</g>
<defs>
<clipPath id="clip0_718_1444">
<rect width="24" height="24" fill="white"/>
</clipPath>
</defs>
</svg>
