<svg width="40" height="40" viewBox="0 0 40 40" fill="none" xmlns="http://www.w3.org/2000/svg">
<mask id="mask0_402_5015" style="mask-type:alpha" maskUnits="userSpaceOnUse" x="0" y="0" width="40" height="40">
<rect width="40" height="40" rx="20" fill="#C4C4C4"/>
</mask>
<g mask="url(#mask0_402_5015)">
<rect width="40" height="40" rx="20" fill="#F4F4F4"/>
<circle cx="19.9999" cy="15.2381" r="6.11905" fill="#CD9663" stroke="#CD9663" stroke-width="3"/>
<path d="M31.8337 35.671C31.8337 37.0644 31.5802 37.9171 31.2286 38.4677C30.8939 38.9921 30.3694 39.4006 29.4857 39.7096C28.5693 40.0299 27.344 40.2151 25.7239 40.3099C24.1127 40.4042 22.2231 40.4048 20.0003 40.4048C17.7793 40.4048 15.8836 40.4043 14.2658 40.3215C12.639 40.2382 11.395 40.075 10.4588 39.7886C9.54122 39.5079 9.02795 39.1423 8.71944 38.7195C8.40719 38.2915 8.16699 37.6159 8.16699 36.4502C8.16699 30.3208 13.6704 26.2619 20.0003 26.2619C23.1837 26.2619 26.1849 27.1194 28.3489 28.7131C30.4689 30.2742 31.8337 32.5661 31.8337 35.671Z" fill="#CD9663" stroke="#CD9663" stroke-width="3"/>
</g>
</svg>
