<svg width="107" height="20" viewBox="0 0 107 20" fill="none" xmlns="http://www.w3.org/2000/svg">
<path d="M2.92945 8.91061H6.7111V11.7039H2.92945V19.7765H0V0.223462H7.74972V3.01676H2.92945V8.91061Z" fill="#CD9663"/>
<path d="M15.8124 19.7765C15.7769 19.6462 15.7413 19.5251 15.7058 19.4134C15.6703 19.3017 15.6348 19.162 15.5993 18.9944C15.5816 18.8268 15.5638 18.6127 15.5461 18.352C15.5461 18.0912 15.5461 17.7654 15.5461 17.3743V14.3017C15.5461 13.3892 15.3951 12.7467 15.0933 12.3743C14.7915 12.0019 14.3033 11.8156 13.6286 11.8156H12.6166V19.7765H9.68715V0.223462H14.108C15.6348 0.223462 16.7356 0.595902 17.4102 1.34078C18.1027 2.08566 18.4489 3.21229 18.4489 4.72067V6.25698C18.4489 8.26816 17.8097 9.59032 16.5314 10.2235C17.2771 10.54 17.7831 11.0615 18.0494 11.7877C18.3335 12.4953 18.4755 13.3613 18.4755 14.3855V17.4022C18.4755 17.8864 18.4933 18.3147 18.5288 18.6871C18.5643 19.041 18.653 19.4041 18.7951 19.7765H15.8124ZM12.6166 3.01676V9.02235H13.7617C14.3121 9.02235 14.7382 8.87337 15.0401 8.57542C15.3596 8.27747 15.5194 7.73743 15.5194 6.95531V5.02793C15.5194 4.3203 15.3951 3.80819 15.1466 3.49162C14.9158 3.17505 14.5429 3.01676 14.0281 3.01676H12.6166Z" fill="#CD9663"/>
<path d="M23.6245 15.2793C23.6245 15.987 23.7577 16.4898 24.024 16.7877C24.308 17.067 24.6809 17.2067 25.1425 17.2067C25.6041 17.2067 25.9681 17.067 26.2344 16.7877C26.5184 16.4898 26.6605 15.987 26.6605 15.2793V4.72067C26.6605 4.01303 26.5184 3.51955 26.2344 3.24022C25.9681 2.94227 25.6041 2.79329 25.1425 2.79329C24.6809 2.79329 24.308 2.94227 24.024 3.24022C23.7577 3.51955 23.6245 4.01303 23.6245 4.72067V15.2793ZM20.6951 4.9162C20.6951 3.33333 21.0768 2.1229 21.8402 1.28491C22.6036 0.428305 23.7044 0 25.1425 0C26.5806 0 27.6813 0.428305 28.4448 1.28491C29.2082 2.1229 29.5899 3.33333 29.5899 4.9162V15.0838C29.5899 16.6667 29.2082 17.8864 28.4448 18.743C27.6813 19.581 26.5806 20 25.1425 20C23.7044 20 22.6036 19.581 21.8402 18.743C21.0768 17.8864 20.6951 16.6667 20.6951 15.0838V4.9162Z" fill="#CD9663"/>
<path d="M34.6362 5.61452V19.7765H31.9996V0.223462H35.6748L38.6841 11.9274V0.223462H41.294V19.7765H38.2846L34.6362 5.61452Z" fill="#CD9663"/>
<path d="M43.1251 0.223462H52.1798V3.01676H49.1172V19.7765H46.1877V3.01676H43.1251V0.223462Z" fill="#CD9663"/>
<path d="M53.2544 0.223462H62.309V3.01676H59.2464V19.7765H56.317V3.01676H53.2544V0.223462Z" fill="#CD9663"/>
<path d="M70.3078 19.7765C70.2723 19.6462 70.2368 19.5251 70.2013 19.4134C70.1658 19.3017 70.1303 19.162 70.0947 18.9944C70.077 18.8268 70.0592 18.6127 70.0415 18.352C70.0415 18.0912 70.0415 17.7654 70.0415 17.3743V14.3017C70.0415 13.3892 69.8906 12.7467 69.5888 12.3743C69.2869 12.0019 68.7987 11.8156 68.124 11.8156H67.112V19.7765H64.1826V0.223462H68.6034C70.1303 0.223462 71.231 0.595902 71.9057 1.34078C72.5981 2.08566 72.9443 3.21229 72.9443 4.72067V6.25698C72.9443 8.26816 72.3052 9.59032 71.0268 10.2235C71.7725 10.54 72.2785 11.0615 72.5448 11.7877C72.8289 12.4953 72.9709 13.3613 72.9709 14.3855V17.4022C72.9709 17.8864 72.9887 18.3147 73.0242 18.6871C73.0597 19.041 73.1485 19.4041 73.2905 19.7765H70.3078ZM67.112 3.01676V9.02235H68.2572C68.8076 9.02235 69.2337 8.87337 69.5355 8.57542C69.8551 8.27747 70.0149 7.73743 70.0149 6.95531V5.02793C70.0149 4.3203 69.8906 3.80819 69.642 3.49162C69.4112 3.17505 69.0384 3.01676 68.5235 3.01676H67.112Z" fill="#CD9663"/>
<path d="M78.3596 8.46369H82.381V11.257H78.3596V16.9832H83.4196V19.7765H75.4302V0.223462H83.4196V3.01676H78.3596V8.46369Z" fill="#CD9663"/>
<path d="M88.3774 5.61452V19.7765H85.7409V0.223462H89.416L92.4253 11.9274V0.223462H95.0352V19.7765H92.0259L88.3774 5.61452Z" fill="#CD9663"/>
<path d="M97.6653 0.223462H102.299C103.773 0.223462 104.865 0.633146 105.575 1.45251C106.303 2.27188 106.667 3.473 106.667 5.05587V14.9441C106.667 16.527 106.303 17.7281 105.575 18.5475C104.865 19.3669 103.773 19.7765 102.299 19.7765H97.6653V0.223462ZM100.595 3.01676V16.9832H102.246C102.707 16.9832 103.071 16.8436 103.338 16.5642C103.604 16.2849 103.737 15.7914 103.737 15.0838V4.9162C103.737 4.20857 103.604 3.71508 103.338 3.43575C103.071 3.15642 102.707 3.01676 102.246 3.01676H100.595Z" fill="#CD9663"/>
</svg>
